<?xml version="1.0" encoding="UTF-8" standalone="no"?>
<svg
   xmlns:dc="http://purl.org/dc/elements/1.1/"
   xmlns:cc="http://creativecommons.org/ns#"
   xmlns:rdf="http://www.w3.org/1999/02/22-rdf-syntax-ns#"
   xmlns:svg="http://www.w3.org/2000/svg"
   xmlns="http://www.w3.org/2000/svg"
   xmlns:sodipodi="http://sodipodi.sourceforge.net/DTD/sodipodi-0.dtd"
   xmlns:inkscape="http://www.inkscape.org/namespaces/inkscape"
   inkscape:version="1.0 (4035a4fb49, 2020-05-01)"
   sodipodi:docname="Rocket League logo (black text).svg"
   version="1.1"
   style=" background: none transparent;"
   viewBox="0 0 1747.93 679.75"
   id="Layer_1">
  <metadata
     id="metadata11">
    <rdf:RDF>
      <cc:Work
         rdf:about="">
        <dc:format>image/svg+xml</dc:format>
        <dc:type
           rdf:resource="http://purl.org/dc/dcmitype/StillImage" />
        <dc:title></dc:title>
      </cc:Work>
    </rdf:RDF>
  </metadata>
  <sodipodi:namedview
     inkscape:current-layer="Layer_1"
     inkscape:window-maximized="1"
     inkscape:window-y="-9"
     inkscape:window-x="-9"
     inkscape:cy="339.875"
     inkscape:cx="873.96503"
     inkscape:zoom="0.69110317"
     showgrid="false"
     id="namedview9"
     inkscape:window-height="1284"
     inkscape:window-width="2400"
     inkscape:pageshadow="2"
     inkscape:pageopacity="0"
     guidetolerance="10"
     gridtolerance="10"
     objecttolerance="10"
     borderopacity="1"
     bordercolor="#666666"
     pagecolor="#ffffff" />
  <defs
     id="defs4">
    <style
       id="style2">.cls-1{fill:#000000;}</style>
  </defs>
  <path
     id="path6"
     transform="translate(-1046.23 -739.84)"
     d="M1153.55,1330.15h119.26v83.48H1046.23v-322h107.32ZM1333.41,906.8a167,167,0,1,1,166.95,167A167,167,0,0,1,1333.41,906.8Zm107.32,0a59.63,59.63,0,1,0,59.63-59.63A59.63,59.63,0,0,0,1440.73,906.8Zm598,53.66,65.59,107.33h119.25l-107.33-161,107.33-161H2104.36l-65.59,107.32V745.81H1931.44v322h107.33ZM1848,1073.75c16.58,0,44.51-2.45,59.63-7V942.47c-10.88,14.52-40.09,24-59.63,24a59.63,59.63,0,0,1,0-119.26c19.54,0,48.75,9.44,59.63,24V746.8c-15.12-4.51-43-7-59.63-7a167,167,0,1,0,0,333.91Zm-694.41-6H1046.23v-322h167c59.28,0,107.33,42.09,107.33,101.36,0,45.12-24.41,86.21-63.85,93.64l81.74,127H1219.14l-65.59-107.33Zm0-166.95h23.85a35.78,35.78,0,0,0,0-71.56h-23.85Zm1082,166.95h226.58V984.31H2342.87V948.54h95.4V865.06h-95.4V829.28h119.25V745.81H2235.54Zm537.23,323.6,4.11,7h-8.73l-2.9-5.65q-3-5.68-4.88-7.16a7.8,7.8,0,0,0-4.87-1.48h-1.84v14.29h-7.06v-34.77h7.06q9.91,0,11.12.09a13.69,13.69,0,0,1,5.45,1.39,8.75,8.75,0,0,1,3.25,3.33,9.74,9.74,0,0,1,1.3,5,9.17,9.17,0,0,1-2.46,6.44,11.14,11.14,0,0,1-6.9,3.31,8.74,8.74,0,0,1,2.43,1.31,16.93,16.93,0,0,1,2.36,2.67C2770.46,1387.5,2771.32,1388.91,2772.77,1391.39Zm-6.33-14.86a4.35,4.35,0,0,0,.86-2.67,4.3,4.3,0,0,0-.83-2.59,4.67,4.67,0,0,0-2.38-1.62c-1-.33-3.55-.49-7.57-.49h-2.86v9.49h2.86q6.12,0,7.59-.47A4.4,4.4,0,0,0,2766.44,1376.53ZM2486,829.28h59.63v238.51h107.33V829.28h59.62V745.81H2486Zm-131.18,447.21a35.78,35.78,0,0,1-71.55,0V1091.64H2175.91v184.85a143.11,143.11,0,0,0,286.21,0V1091.64H2354.79ZM2000,1300.34h49.79c-4.57,10.93-17.24,29.81-49.79,29.81-36.77,0-65.59-31.55-65.59-71.55,0-43.48,32.72-69.62,65.59-71.55,35.9-2.12,51.2,12.63,62,23.42l73.95-70.13c-35.65-35.65-78.8-54.66-135.94-54.66a167,167,0,1,0,0,333.91c95.9,0,155-68.82,155-155v-41.74H2000Zm486,113.29h226.58v-83.48H2593.3v-35.78h95.4V1210.9h-95.4v-35.78h119.25v-83.48H2486Zm-736.15-322,107.33,322H1749.82l-11.48-47.7H1654l-11.48,47.7H1535.17l107.33-322Zm-31.58,190.81-22.08-91.74-22.08,91.74Zm-421.58,131.18h226.58v-83.48H1404v-35.78h95.4V1210.9H1404v-35.78h119.25v-83.48H1296.66Zm1497.49-32.76a33,33,0,0,1-4.33,16.32,31,31,0,0,1-12.11,12.1,32.82,32.82,0,0,1-32.62,0,31,31,0,0,1-12.11-12.1,32.86,32.86,0,0,1,.08-32.78,30.54,30.54,0,0,1,12.17-12.08,33.14,33.14,0,0,1,32.33,0,30.48,30.48,0,0,1,12.17,12.08A33.22,33.22,0,0,1,2794.15,1380.87Zm-6.37,0a26.6,26.6,0,0,0-3.57-13.25,24.52,24.52,0,0,0-9.79-9.71,26.57,26.57,0,0,0-25.94,0,24.53,24.53,0,0,0-9.77,9.71,26.44,26.44,0,0,0-.09,26.38,25,25,0,0,0,9.74,9.75,26.16,26.16,0,0,0,26.18,0,25,25,0,0,0,9.73-9.75A26.4,26.4,0,0,0,2787.78,1380.87Z"
     class="cls-1" />
</svg>
